{"asset":{"version":"2.0","generator":"VECTARY"},"nodes":[{"translation":[0,0.030415241309790886,5.3290705182007515e-18],"scale":[0.05,0.05,0.05],"rotation":[-0.7071067811865475,0,0,0.7071067811865476],"name":"RootNode (gltf orientation matrix)","children":[1]},{"translation":[0,0,0],"scale":[1,1,1],"rotation":[0,0,0,1],"name":"RootNode (model correction matrix)","children":[2]},{"translation":[0,0,0],"scale":[1,0.9999999999999999,0.9999999999999999],"rotation":[0.7071067966408576,0,0,0.7071067657322372],"name":"Collada visual scene group","children":[3,5,7,9,11,13,15,17]},{"translation":[0,0,0],"scale":[1,1,1],"rotation":[0,0,0,1],"name":"zdxvz1:polySurface17","children":[4]},{"translation":[0,0,0],"scale":[1,1,1],"rotation":[0,0,0,1],"name":"defaultMaterial","mesh":0},{"translation":[0,0,0],"scale":[1,1,1],"rotation":[0,0,0,1],"name":"zdxvz1:polySurface16","children":[6]},{"translation":[0,0,0],"scale":[1,1,1],"rotation":[0,0,0,1],"name":"defaultMaterial","mesh":1},{"translation":[0,0,0],"scale":[1,1,1],"rotation":[0,0,0,1],"name":"zdxvz1:polySurface15","children":[8]},{"translation":[0,0,0],"scale":[1,1,1],"rotation":[0,0,0,1],"name":"defaultMaterial","mesh":2},{"translation":[0,0,0],"scale":[1,1,1],"rotation":[0,0,0,1],"name":"zdxvz1:polySurface14","children":[10]},{"translation":[0,0,0],"scale":[1,1,1],"rotation":[0,0,0,1],"name":"defaultMaterial","mesh":3},{"translation":[0,0,0],"scale":[1,1,1],"rotation":[0,0,0,1],"name":"zdxvz1:polySurface12","children":[12]},{"translation":[0,0,0],"scale":[1,1,1],"rotation":[0,0,0,1],"name":"defaultMaterial","mesh":4},{"translation":[0,0,0],"scale":[1,1,1],"rotation":[0,0,0,1],"name":"zdxvz1:polySurface11","children":[14]},{"translation":[0,0,0],"scale":[1,1,1],"rotation":[0,0,0,1],"name":"defaultMaterial","mesh":5},{"translation":[0,0,0],"scale":[1,1,1],"rotation":[0,0,0,1],"name":"zdxvz1:polySurface10","children":[16]},{"translation":[0,0,0],"scale":[1,1,1],"rotation":[0,0,0,1],"name":"defaultMaterial","mesh":6},{"translation":[0,0,0],"scale":[1,1,1],"rotation":[0,0,0,1],"name":"zdxvz1:Jacket_Low","children":[18]},{"translation":[0,0,0],"scale":[1,1,1],"rotation":[0,0,0,1],"name":"defaultMaterial","mesh":7},{"translation":[-0.13943445078767774,0.08603869636888624,0.16565533369372853],"scale":[1,1,1],"rotation":[-0.17230914386088805,-0.3135753335083341,-0.05797430389677033,0.9319973440116391],"name":"Camera","camera":0}],"materials":[{"pbrMetallicRoughness":{"baseColorFactor":[1,1,1,1],"baseColorTexture":{"index":0,"extensions":{"KHR_texture_transform":{"offset":[0,0],"scale":[1,1],"rotation":0}},"texCoord":0},"metallicRoughnessTexture":{"index":2,"extensions":{"KHR_texture_transform":{"offset":[0,0],"scale":[1,1],"rotation":0}},"texCoord":0},"metallicFactor":1,"roughnessFactor":1},"name":"Material","normalTexture":{"index":1,"scale":1,"extensions":{"KHR_texture_transform":{"offset":[0,0],"scale":[1,1],"rotation":0}},"texCoord":0},"emissiveFactor":[0,0,0],"occlusionTexture":{"index":2,"strength":1,"extensions":{"KHR_texture_transform":{"offset":[0,0],"scale":[1,1],"rotation":0}},"texCoord":0},"alphaMode":"OPAQUE","doubleSided":true}],"textures":[{"sampler":0,"source":0},{"sampler":0,"source":1},{"sampler":0,"source":2}],"images":[{"uri":"49c24686-3f87-4366-ac3d-a4dde3af68a3.jpg","mimeType":"image/jpeg"},{"uri":"58eb4021-cccc-4e80-bbd8-2061125e4443.png","mimeType":"image/png"},{"uri":"3629d798-c83c-4f0b-9b3f-911864cc0f6c.png","mimeType":"image/png"}],"samplers":[{"wrapS":10497,"wrapT":10497}],"meshes":[{"primitives":[{"mode":4,"attributes":{"POSITION":1,"NORMAL":2,"TEXCOORD_0":3},"material":0,"indices":0}]},{"primitives":[{"mode":4,"attributes":{"POSITION":5,"NORMAL":6,"TEXCOORD_0":7},"material":0,"indices":4}]},{"primitives":[{"mode":4,"attributes":{"POSITION":9,"NORMAL":10,"TEXCOORD_0":11},"material":0,"indices":8}]},{"primitives":[{"mode":4,"attributes":{"POSITION":13,"NORMAL":14,"TEXCOORD_0":15},"material":0,"indices":12}]},{"primitives":[{"mode":4,"attributes":{"POSITION":17,"NORMAL":18,"TEXCOORD_0":19},"material":0,"indices":16}]},{"primitives":[{"mode":4,"attributes":{"POSITION":21,"NORMAL":22,"TEXCOORD_0":23},"material":0,"indices":20}]},{"primitives":[{"mode":4,"attributes":{"POSITION":25,"NORMAL":26,"TEXCOORD_0":27},"material":0,"indices":24}]},{"primitives":[{"mode":4,"attributes":{"POSITION":29,"NORMAL":30,"TEXCOORD_0":31},"material":0,"indices":28}]}],"accessors":[{"bufferView":0,"byteOffset":0,"componentType":5125,"count":60,"type":"SCALAR"},{"bufferView":1,"byteOffset":0,"componentType":5126,"count":40,"max":[0.014967599883675575,0.4887779951095581,0.09061750024557114],"min":[-0.010283400304615498,0.475939005613327,0.0834525004029274],"type":"VEC3"},{"bufferView":2,"byteOffset":0,"componentType":5126,"count":40,"type":"VEC3"},{"bufferView":3,"byteOffset":0,"componentType":5126,"count":40,"type":"VEC2"},{"bufferView":4,"byteOffset":0,"componentType":5125,"count":48,"type":"SCALAR"},{"bufferView":5,"byteOffset":0,"componentType":5126,"count":32,"max":[0.02552659995853901,-0.5295019745826721,0.2288070023059845],"min":[0.017135700210928917,-0.5534030199050903,0.21764899790287018],"type":"VEC3"},{"bufferView":6,"byteOffset":0,"componentType":5126,"count":32,"type":"VEC3"},{"bufferView":7,"byteOffset":0,"componentType":5126,"count":32,"type":"VEC2"},{"bufferView":8,"byteOffset":0,"componentType":5125,"count":60,"type":"SCALAR"},{"bufferView":9,"byteOffset":0,"componentType":5126,"count":40,"max":[0.017774200066924095,-0.5259199738502502,0.22981500625610352],"min":[0.010369000025093555,-0.5534679889678955,0.21766600012779236],"type":"VEC3"},{"bufferView":10,"byteOffset":0,"componentType":5126,"count":40,"type":"VEC3"},{"bufferView":11,"byteOffset":0,"componentType":5126,"count":40,"type":"VEC2"},{"bufferView":12,"byteOffset":0,"componentType":5125,"count":366,"type":"SCALAR"},{"bufferView":13,"byteOffset":0,"componentType":5126,"count":242,"max":[0.02719840034842491,-0.5403169989585876,0.2274239957332611],"min":[0.009649749845266342,-0.5554320216178894,0.21855400502681732],"type":"VEC3"},{"bufferView":14,"byteOffset":0,"componentType":5126,"count":242,"type":"VEC3"},{"bufferView":15,"byteOffset":0,"componentType":5126,"count":242,"type":"VEC2"},{"bufferView":16,"byteOffset":0,"componentType":5125,"count":456,"type":"SCALAR"},{"bufferView":17,"byteOffset":0,"componentType":5126,"count":304,"max":[0.008469769731163979,0.4723280072212219,0.09566479921340942],"min":[-0.008987540379166603,0.42425599694252014,0.0913223996758461],"type":"VEC3"},{"bufferView":18,"byteOffset":0,"componentType":5126,"count":304,"type":"VEC3"},{"bufferView":19,"byteOffset":0,"componentType":5126,"count":304,"type":"VEC2"},{"bufferView":20,"byteOffset":0,"componentType":5125,"count":354,"type":"SCALAR"},{"bufferView":21,"byteOffset":0,"componentType":5126,"count":234,"max":[0.013456500135362148,0.4855949878692627,0.09572820365428925],"min":[-0.010538900271058083,0.4608669877052307,0.08757320046424866],"type":"VEC3"},{"bufferView":22,"byteOffset":0,"componentType":5126,"count":234,"type":"VEC3"},{"bufferView":23,"byteOffset":0,"componentType":5126,"count":234,"type":"VEC2"},{"bufferView":24,"byteOffset":0,"componentType":5125,"count":114,"type":"SCALAR"},{"bufferView":25,"byteOffset":0,"componentType":5126,"count":76,"max":[0.0047217500396072865,0.4852159917354584,0.0977557972073555],"min":[-0.0016409700037911534,0.4627229869365692,0.090870700776577],"type":"VEC3"},{"bufferView":26,"byteOffset":0,"componentType":5126,"count":76,"type":"VEC3"},{"bufferView":27,"byteOffset":0,"componentType":5126,"count":76,"type":"VEC2"},{"bufferView":28,"byteOffset":0,"componentType":5125,"count":27525,"type":"SCALAR"},{"bufferView":29,"byteOffset":0,"componentType":5126,"count":4993,"max":[1,0.5582450032234192,0.24834099411964417],"min":[-1,-0.5582450032234192,-0.24834099411964417],"type":"VEC3"},{"bufferView":30,"byteOffset":0,"componentType":5126,"count":4993,"type":"VEC3"},{"bufferView":31,"byteOffset":0,"componentType":5126,"count":4993,"type":"VEC2"}],"bufferViews":[{"buffer":0,"byteOffset":0,"byteLength":240,"target":34963},{"buffer":0,"byteOffset":240,"byteLength":480,"target":34962},{"buffer":0,"byteOffset":720,"byteLength":480,"target":34962},{"buffer":0,"byteOffset":1200,"byteLength":320,"target":34962},{"buffer":0,"byteOffset":1520,"byteLength":192,"target":34963},{"buffer":0,"byteOffset":1712,"byteLength":384,"target":34962},{"buffer":0,"byteOffset":2096,"byteLength":384,"target":34962},{"buffer":0,"byteOffset":2480,"byteLength":256,"target":34962},{"buffer":0,"byteOffset":2736,"byteLength":240,"target":34963},{"buffer":0,"byteOffset":2976,"byteLength":480,"target":34962},{"buffer":0,"byteOffset":3456,"byteLength":480,"target":34962},{"buffer":0,"byteOffset":3936,"byteLength":320,"target":34962},{"buffer":0,"byteOffset":4256,"byteLength":1464,"target":34963},{"buffer":0,"byteOffset":5720,"byteLength":2904,"target":34962},{"buffer":0,"byteOffset":8624,"byteLength":2904,"target":34962},{"buffer":0,"byteOffset":11528,"byteLength":1936,"target":34962},{"buffer":0,"byteOffset":13464,"byteLength":1824,"target":34963},{"buffer":0,"byteOffset":15288,"byteLength":3648,"target":34962},{"buffer":0,"byteOffset":18936,"byteLength":3648,"target":34962},{"buffer":0,"byteOffset":22584,"byteLength":2432,"target":34962},{"buffer":0,"byteOffset":25016,"byteLength":1416,"target":34963},{"buffer":0,"byteOffset":26432,"byteLength":2808,"target":34962},{"buffer":0,"byteOffset":29240,"byteLength":2808,"target":34962},{"buffer":0,"byteOffset":32048,"byteLength":1872,"target":34962},{"buffer":0,"byteOffset":33920,"byteLength":456,"target":34963},{"buffer":0,"byteOffset":34376,"byteLength":912,"target":34962},{"buffer":0,"byteOffset":35288,"byteLength":912,"target":34962},{"buffer":0,"byteOffset":36200,"byteLength":608,"target":34962},{"buffer":0,"byteOffset":36808,"byteLength":110100,"target":34963},{"buffer":0,"byteOffset":146908,"byteLength":59916,"target":34962},{"buffer":0,"byteOffset":206824,"byteLength":59916,"target":34962},{"buffer":0,"byteOffset":266740,"byteLength":39944,"target":34962}],"cameras":[{"name":"Camera","type":"perspective","extras":{"targetDistance":0.2310029511112285},"perspective":{"aspectRatio":1.5789473684210527,"yfov":0.6108652381980153,"zfar":28.74098624085077,"znear":0.0018971012194557368}}],"scene":0,"scenes":[{"nodes":[0,19],"name":"Pink Jacket"}],"extensionsUsed":["KHR_texture_transform"],"buffers":[{"byteLength":306684,"uri":"PinkJacket.bin"}]}