<svg width="10" height="10" viewBox="0 0 10 10" fill="none" xmlns="http://www.w3.org/2000/svg">
<path d="M3.72139 10C3.39544 10 3.08673 9.85499 2.88892 9.60496L0.211676 6.23251C0.128904 6.12836 0.0684746 6.00967 0.0338433 5.88324C-0.000787988 5.75681 -0.00894218 5.62512 0.0098468 5.49568C0.0286358 5.36624 0.0739994 5.24161 0.143345 5.1289C0.21269 5.01619 0.304657 4.91761 0.413987 4.8388C0.523279 4.75967 0.647876 4.70188 0.780639 4.66874C0.913403 4.6356 1.05172 4.62776 1.18767 4.64568C1.32361 4.6636 1.45451 4.70692 1.57286 4.77315C1.69122 4.83939 1.79469 4.92725 1.87737 5.03168L3.63897 7.24903L8.06807 0.468397C8.21496 0.244518 8.44899 0.0853227 8.71883 0.0257293C8.98867 -0.0338641 9.27229 0.0110105 9.50747 0.15051C9.99676 0.440537 10.1474 1.05488 9.84165 1.52207L4.60856 9.52996C4.51922 9.66727 4.39609 9.78172 4.24985 9.86339C4.1036 9.94505 3.93866 9.99145 3.76934 9.99857C3.75286 10 3.73787 10 3.72139 10Z" fill="#7E8ED7"/>
</svg>
