<svg width="21" height="32" viewBox="0 0 21 32" fill="none" xmlns="http://www.w3.org/2000/svg">
<path d="M1.09108 31.745C1.7605 32.1133 2.55599 32.0425 3.16456 31.5561L10.2196 25.9221C10.3065 25.8512 10.4239 25.8512 10.5109 25.9221L17.7137 31.5891C18.0615 31.863 18.4657 32 18.8787 32C19.1873 32 19.4959 31.9197 19.7828 31.7639C20.4523 31.3908 20.8696 30.6541 20.8696 29.8371V2.16294C20.8696 0.968139 19.9784 1.71214e-05 18.883 1.71214e-05H1.98654C0.891119 -0.00470543 0 0.968139 0 2.15822V29.8135C0 30.6352 0.417304 31.3766 1.09108 31.745Z" fill="#9B00D1"/>
<path d="M8.00011 4.81913L8.00002 7.52063L12.9997 7.5205L12.9998 4.819C12.9999 4.71142 12.9756 4.60487 12.9283 4.50547C12.881 4.40606 12.8116 4.31574 12.724 4.23967C12.6365 4.1636 12.5325 4.10327 12.4181 4.06215C12.3037 4.02103 12.1811 3.99991 12.0573 4L8.94276 4.00008C8.81894 3.99999 8.69632 4.02112 8.58191 4.06225C8.46749 4.10338 8.36354 4.16371 8.27598 4.23978C8.18843 4.31585 8.119 4.40618 8.07166 4.50559C8.02432 4.605 8.00001 4.71155 8.00011 4.81913ZM13 19.8284L12.9997 8.16923L8 8.16936L8.00027 19.8286L10.4994 22L13 19.8284ZM12.0552 4.86942L12.0558 6.65285L8.94133 6.65177L8.94206 4.8695L12.0552 4.86942ZM8.94125 9.03933L12.0551 9.03867L12.0554 19.4896L10.4981 20.8427L8.9409 19.4897L8.94125 9.03933Z" fill="white"/>
</svg>
