<svg width="21" height="14" viewBox="0 0 21 14" fill="none" xmlns="http://www.w3.org/2000/svg">
<path d="M10.25 13.375C14.9485 13.375 20.5 9.56996 20.5 6.6875C20.5 3.80504 14.9485 0 10.25 0C5.55147 0 0 3.80504 0 6.6875C0 9.56996 5.55147 13.375 10.25 13.375ZM10.25 11.875C6.28584 11.875 1.5 8.59473 1.5 6.6875C1.5 4.78027 6.28584 1.5 10.25 1.5C14.2142 1.5 19 4.78027 19 6.6875C19 8.59473 14.2142 11.875 10.25 11.875Z" fill="white"/>
<path d="M10.25 11C12.6317 11 14.5625 9.06923 14.5625 6.6875C14.5625 4.30577 12.6317 2.375 10.25 2.375C7.86827 2.375 5.9375 4.30577 5.9375 6.6875C5.9375 9.06923 7.86827 11 10.25 11ZM10.25 9.5C8.6967 9.5 7.4375 8.2408 7.4375 6.6875C7.4375 5.1342 8.6967 3.875 10.25 3.875C11.8033 3.875 13.0625 5.1342 13.0625 6.6875C13.0625 8.2408 11.8033 9.5 10.25 9.5Z" fill="white"/>
</svg>
