<svg width="23" height="10" viewBox="0 0 23 10" fill="none" xmlns="http://www.w3.org/2000/svg">
<path d="M22.7116 2.57821L20.7405 0.836832L20.0802 0.253549C20.0191 0.201889 19.9491 0.15023 19.8704 0.115791C19.5295 -0.0908459 19.0749 -0.0133571 18.8127 0.287988C17.956 1.27812 14.8788 4.52404 11.4869 4.52404C8.08633 4.52404 5.01792 1.28673 4.16121 0.287988C4.02134 0.124401 3.82027 0.0210823 3.59298 0.00386259C3.37443 -0.0133571 3.15589 0.0555218 2.98979 0.19328C2.96356 0.210499 2.94608 0.227719 2.91985 0.244939L2.31095 0.782877L0.288536 2.5696C-0.0523994 2.87095 -0.096109 3.37893 0.183632 3.71471C0.340987 3.90413 0.577019 4.01606 0.821793 4.01606C1.02286 4.01606 1.22392 3.93857 1.37253 3.80942L3.26953 2.13911C3.37443 2.0444 3.53179 2.05301 3.63669 2.15633C4.18743 2.72458 4.77314 3.24978 5.35885 3.71471C5.46375 3.80081 5.48998 3.94718 5.4113 4.05911L3.88147 6.31489C3.62795 6.69373 3.73285 7.20171 4.10876 7.4514C4.24863 7.53749 4.40598 7.58915 4.57208 7.58915C4.85182 7.58915 5.10533 7.4514 5.26269 7.22754L6.77504 4.98897C6.85372 4.87705 7.00233 4.84261 7.12472 4.91149C8.19998 5.51418 9.26649 5.90162 10.3155 6.07382C10.4467 6.09104 10.5428 6.20297 10.5428 6.33211V8.76871C10.5428 9.22503 10.9012 9.60386 11.3471 9.61247C11.3558 9.61247 11.3646 9.61247 11.3733 9.61247C11.5918 9.61247 11.7929 9.53498 11.9503 9.38001C12.1164 9.22503 12.2038 9.01839 12.2038 8.79453V6.34933C12.2038 6.22018 12.2999 6.10826 12.4398 6.09104C13.4276 5.96189 14.4504 5.6261 15.4645 5.1009C15.5869 5.03202 15.7443 5.07507 15.8142 5.19561L17.2042 7.46001C17.3528 7.70108 17.6238 7.85606 17.9123 7.85606C18.0958 7.85606 18.2707 7.79579 18.4193 7.68386C18.7515 7.43418 18.8389 6.96063 18.6116 6.59902L17.2042 4.30019C17.1342 4.18826 17.1604 4.04189 17.2741 3.9644C17.9822 3.4392 18.6815 2.81929 19.3459 2.13911C19.4421 2.03579 19.6082 2.03579 19.7131 2.12189L21.6188 3.80942C21.7674 3.94718 21.9685 4.01606 22.1696 4.01606C22.4143 4.01606 22.6504 3.90413 22.8077 3.71471C23.0962 3.39615 23.0438 2.87956 22.7116 2.57821Z" fill="white"/>
</svg>
