<svg width="15" height="15" viewBox="0 0 15 15" fill="none" xmlns="http://www.w3.org/2000/svg">
<path d="M0.25631 3.52975L2.29205 5.56561L5.56564 2.29183L3.5299 0.255967C3.4489 0.174825 3.3527 0.110451 3.2468 0.0665296C3.14089 0.0226078 3.02737 0 2.91272 0C2.79807 0 2.68455 0.0226078 2.57865 0.0665296C2.47274 0.110451 2.37654 0.174825 2.29554 0.255967L0.25631 2.29532C0.175172 2.37632 0.110801 2.47253 0.066882 2.57844C0.0229629 2.68435 0.000357188 2.79788 0.000357188 2.91253C0.000357188 3.02719 0.0229629 3.14072 0.066882 3.24663C0.110801 3.35254 0.175172 3.44875 0.25631 3.52975V3.52975ZM14.8408 11.5667L6.0545 2.78071L2.7809 6.0545L11.5672 14.8405H14.8399V11.5667H14.8408ZM2.94938 0.912471L4.29374 2.25603L2.25364 4.29451L0.911028 2.95095L2.94938 0.912471ZM4.0528 6.09378L6.09116 4.05443L13.967 11.9298V13.9692H11.9278L4.0528 6.09378V6.09378Z" fill="black"/>
</svg>
