<svg width="5" height="18" viewBox="0 0 5 18" fill="none" xmlns="http://www.w3.org/2000/svg">
<path d="M0.000113578 0.819128L2.14784e-05 3.52063L4.99975 3.5205L4.99984 0.818998C4.99995 0.711417 4.97564 0.604875 4.92831 0.505466C4.88098 0.406058 4.81156 0.315735 4.72401 0.239666C4.63646 0.163597 4.53251 0.103274 4.4181 0.06215C4.30369 0.0210256 4.18107 -9.43156e-05 4.05725 3.16612e-07L0.942756 8.0951e-05C0.818941 -7.346e-06 0.696318 0.0211171 0.581906 0.0622474C0.467493 0.103378 0.363537 0.163706 0.275983 0.23978C0.18843 0.315854 0.118998 0.40618 0.071661 0.50559C0.0243241 0.605001 1.19359e-05 0.711546 0.000113578 0.819128ZM5 15.8284L4.99973 4.16923L0 4.16936L0.00027286 15.8286L2.4994 18L5 15.8284ZM4.05522 0.869416L4.05583 2.65285L0.941333 2.65177L0.942059 0.869496L4.05522 0.869416ZM0.941252 5.03933L4.05508 5.03867L4.0554 15.4896L2.4981 16.8427L0.940899 15.4897L0.941252 5.03933Z" fill="#595959"/>
</svg>
