<svg width="21" height="32" viewBox="0 0 21 32" fill="none" xmlns="http://www.w3.org/2000/svg">
<path d="M1.09108 31.745C1.7605 32.1133 2.55599 32.0425 3.16456 31.5561L10.2196 25.9221C10.3065 25.8512 10.4239 25.8512 10.5109 25.9221L17.7137 31.5891C18.0615 31.863 18.4657 32 18.8787 32C19.1873 32 19.4959 31.9197 19.7828 31.7639C20.4523 31.3908 20.8696 30.6541 20.8696 29.8371V2.16294C20.8696 0.968139 19.9784 1.71214e-05 18.883 1.71214e-05H1.98654C0.891119 -0.00470543 0 0.968139 0 2.15822V29.8135C0 30.6352 0.417304 31.3766 1.09108 31.745Z" fill="#5C35EE"/>
<circle r="3.32191" transform="matrix(-0.997393 -0.0721564 -0.0721564 0.997393 9.98078 7.98076)" stroke="white" stroke-width="0.8"/>
<line y1="-0.4" x2="10.2335" y2="-0.4" transform="matrix(0.0220624 0.999757 0.999757 -0.0220624 10.5079 11.0044)" stroke="white" stroke-width="0.8"/>
</svg>
