<svg width="7" height="18" viewBox="0 0 7 18" fill="none" xmlns="http://www.w3.org/2000/svg">
<path d="M2.75283 6.57476V17.1868C2.75283 17.4966 3.00384 17.7473 3.31331 17.7473C3.62277 17.7473 3.87378 17.4962 3.87378 17.1868V6.57476C5.43432 6.30724 6.62661 4.94849 6.62661 3.31298C6.62694 1.48623 5.14038 0 3.31331 0C1.48623 0 0 1.48623 0 3.31298C0 4.94849 1.19262 6.30757 2.75283 6.57476ZM3.31331 1.12095C4.52211 1.12095 5.50566 2.1045 5.50566 3.31298C5.50566 4.52145 4.52211 5.505 3.31331 5.505C2.1045 5.505 1.12095 4.52178 1.12095 3.31298C1.12095 2.10417 2.1045 1.12095 3.31331 1.12095Z" fill="#595959"/>
</svg>
