<svg width="35" height="23" viewBox="0 0 35 23" fill="none" xmlns="http://www.w3.org/2000/svg">
<path d="M8.75388 17.0767C4.41923 15.8007 1.72604 13.6639 1.72604 11.4997C1.72604 7.84099 8.9495 4.74986 17.5003 4.74986C17.788 4.74986 18.0831 4.75671 18.3783 4.76412L17.3795 6.68303C17.1608 7.10286 17.3271 7.61909 17.7506 7.83585C17.8771 7.90088 18.0129 7.93111 18.1458 7.93111C18.4582 7.93111 18.7597 7.76227 18.9133 7.46793L20.5272 4.36654C20.5525 4.31862 20.5732 4.26728 20.5893 4.21366C20.5893 4.21309 20.5899 4.21252 20.5899 4.21195C20.6008 4.17716 20.606 4.14065 20.6118 4.10414C20.6158 4.08589 20.6204 4.0682 20.6221 4.04938C20.6221 4.0471 20.6221 4.04539 20.6221 4.04311C20.6233 4.03512 20.6256 4.02771 20.6261 4.01972C20.6273 3.99747 20.6238 3.97694 20.6238 3.95526C20.6238 3.9313 20.6244 3.90734 20.6221 3.88339C20.6215 3.88053 20.621 3.87711 20.6204 3.87426C20.6164 3.84003 20.6089 3.80752 20.602 3.77444C20.5985 3.75675 20.5951 3.7385 20.5899 3.72082C20.5887 3.71739 20.587 3.71454 20.5859 3.71055C20.5755 3.67918 20.5629 3.65008 20.5496 3.61985C20.5439 3.60445 20.5393 3.58905 20.5318 3.57365L18.9139 0.463697C18.6947 0.0432946 18.1752 -0.120987 17.7511 0.0952032C17.3277 0.311964 17.1614 0.828198 17.3795 1.24803L18.3179 3.05171C18.0434 3.04543 17.7684 3.03859 17.5003 3.03859C7.68719 3.03859 0 6.75547 0 11.4997C0 14.4967 3.08903 17.1942 8.26254 18.7167C8.34424 18.7412 8.42709 18.7521 8.50821 18.7521C8.88046 18.7521 9.22394 18.5113 9.33556 18.14C9.47134 17.6876 9.21128 17.2113 8.75388 17.0767ZM35 11.4997C35 8.50325 31.9115 5.80457 26.738 4.28211C26.2818 4.14806 25.8008 4.4059 25.6656 4.85881C25.5298 5.31173 25.7904 5.78803 26.2473 5.92265C30.5819 7.19812 33.2745 9.3355 33.2745 11.4997C33.2745 15.1584 26.0511 18.2495 17.5009 18.2495C17.212 18.2495 16.9175 18.2427 16.6229 18.2358L17.6217 16.3163C17.8403 15.8965 17.674 15.3803 17.2506 15.1635C16.8266 14.9473 16.3059 15.1116 16.0878 15.532L14.4699 18.6414C14.4688 18.6437 14.4682 18.6465 14.4671 18.6494C14.455 18.6728 14.4475 18.699 14.4371 18.7241C14.4279 18.7452 14.4182 18.7663 14.4118 18.7886C14.4118 18.7897 14.4118 18.7908 14.4113 18.792C14.4038 18.8159 14.3998 18.8416 14.3951 18.8667C14.3951 18.8667 14.3951 18.8667 14.3951 18.8673C14.3894 18.8952 14.3831 18.9226 14.3802 18.9506C14.3802 18.9528 14.3802 18.9551 14.3802 18.9568C14.3796 18.9648 14.3767 18.9717 14.3762 18.9797C14.375 18.9973 14.3779 19.015 14.3779 19.0327C14.3779 19.0333 14.3779 19.0333 14.3779 19.0338C14.3779 19.0618 14.3773 19.0892 14.3796 19.1171C14.3796 19.12 14.3808 19.1234 14.3813 19.1262C14.3848 19.1599 14.3923 19.1918 14.3998 19.2244C14.4032 19.2426 14.4061 19.2609 14.4118 19.2797C14.4124 19.2831 14.4141 19.286 14.4153 19.2888C14.4251 19.3202 14.4383 19.3499 14.451 19.3795C14.4573 19.3949 14.4619 19.412 14.4699 19.4269L16.0878 22.5368C16.2409 22.8317 16.5429 23 16.8553 23C16.9882 23 17.1234 22.9692 17.25 22.9047C17.6735 22.688 17.8397 22.1723 17.6217 21.7519L16.6833 19.9488C16.9572 19.9551 17.2316 19.9614 17.5009 19.9614C27.3134 19.9608 35 16.2439 35 11.4997Z" fill="#333333"/>
</svg>
