<svg width="24" height="27" viewBox="0 0 24 27" fill="none" xmlns="http://www.w3.org/2000/svg">
<path d="M5.07025 19.7979C4.68275 19.8836 4.43156 20.1486 4.43156 20.4362C4.43156 20.4992 4.44346 20.5627 4.46846 20.6257C6.05775 24.6174 8.87264 27 12 27C16.9506 27 20.8292 21.0705 20.8292 13.4996C20.8292 13.2927 20.8215 13.0806 20.8155 12.8688L22.6977 13.5928C23.1352 13.7614 23.6745 13.6332 23.9007 13.306C24.1263 12.9794 23.9548 12.5781 23.5161 12.409L20.2709 11.1609C20.2554 11.1546 20.2387 11.1515 20.2227 11.1471C20.1917 11.1369 20.1608 11.1267 20.1286 11.1191C20.1245 11.1182 20.1215 11.1169 20.1179 11.116C20.0995 11.112 20.0804 11.1094 20.0614 11.1067C20.0268 11.1009 19.9935 11.0956 19.9572 11.0925C19.9542 11.0921 19.9506 11.0916 19.9477 11.0912C19.9221 11.0894 19.8977 11.0898 19.8721 11.0898C19.85 11.0898 19.828 11.0872 19.8054 11.0881C19.7965 11.0885 19.7893 11.0903 19.781 11.0912C19.7786 11.0912 19.7762 11.0912 19.7739 11.0912C19.7548 11.0925 19.7364 11.0961 19.7167 11.0992C19.6786 11.1036 19.6405 11.108 19.6042 11.116C19.6036 11.116 19.603 11.1165 19.6024 11.1165C19.5459 11.1289 19.4929 11.1449 19.4423 11.1644L16.206 12.4094C15.8989 12.5279 15.7227 12.7605 15.7227 13.0015C15.7227 13.1041 15.7548 13.2088 15.8227 13.3065C16.0489 13.6332 16.5869 13.7614 17.0256 13.5928L19.028 12.8222C19.0364 13.0504 19.0429 13.2776 19.0429 13.4996C19.0429 20.0958 15.8173 25.6684 11.9994 25.6684C9.7411 25.6684 7.51133 23.5912 6.17978 20.2467C6.0399 19.8942 5.54287 19.6936 5.07025 19.7979ZM3.17084 13.4996C3.17084 13.7073 3.17798 13.919 3.18394 14.1303L1.30238 13.4063C0.864288 13.2377 0.325596 13.366 0.0994049 13.6931C0.0321428 13.7907 0 13.895 0 13.9976C0 14.2395 0.176191 14.4716 0.483335 14.5901L3.72858 15.8383C3.74406 15.8449 3.76191 15.8476 3.77799 15.8525C3.80894 15.8627 3.83989 15.8729 3.87263 15.88C3.87561 15.8809 3.87858 15.8826 3.88215 15.8831C3.9012 15.8875 3.92025 15.8897 3.93989 15.8924C3.97382 15.8986 4.00715 15.9039 4.04227 15.9066C4.04525 15.9071 4.04882 15.9079 4.0518 15.9079C4.08096 15.9102 4.10953 15.9097 4.1387 15.9097C4.1393 15.9097 4.1393 15.9097 4.13989 15.9097C4.15834 15.9097 4.1768 15.9119 4.19525 15.911C4.20358 15.9106 4.21073 15.9088 4.21906 15.9079C4.22085 15.9079 4.22322 15.9079 4.22561 15.9079C4.25537 15.9057 4.28394 15.9008 4.31251 15.8968C4.31311 15.8968 4.31311 15.8964 4.31311 15.8964C4.3393 15.8924 4.36608 15.8893 4.39108 15.884C4.39227 15.884 4.39346 15.884 4.39465 15.8835C4.41787 15.8782 4.43989 15.8711 4.46192 15.864C4.48811 15.856 4.51549 15.8502 4.53989 15.8405C4.54287 15.8396 4.54584 15.8391 4.54823 15.8383L7.79288 14.5901C8.23097 14.4215 8.4024 14.0202 8.1774 13.6931C7.95121 13.3664 7.41311 13.2381 6.97442 13.4068L4.97144 14.1773C4.9637 13.9496 4.95716 13.7228 4.95716 13.5C4.95716 6.9038 8.18276 1.33114 12.0006 1.33114C14.259 1.33114 16.4893 3.4084 17.8203 6.75244C17.9602 7.10487 18.4572 7.30593 18.9298 7.20118C19.403 7.09688 19.6721 6.72581 19.5322 6.37383C17.9429 2.38264 15.1274 9.9656e-08 12.0006 9.9656e-08C7.04942 -0.00088762 3.17084 5.92908 3.17084 13.4996Z" fill="#333333"/>
</svg>
