{"asset":{"version":"2.0","generator":"VECTARY"},"nodes":[{"translation":[0,0.1367,5.684341886080802e-17],"scale":[0.0008400469224132081,0.0008406909499430743,0.0008316311642836302],"rotation":[0.008726535498374044,0,0,0.9999619230641712],"name":"Path","mesh":0},{"translation":[0,0.1367,5.684341886080802e-17],"scale":[0.0008400469224132081,0.0008406909499430743,0.0008316311642836302],"rotation":[0.008726535498374044,0,0,0.9999619230641712],"name":"Path","mesh":1},{"translation":[0,0.1367,5.684341886080802e-17],"scale":[0.0008400469224132081,0.0008406909499430743,0.0008316311642836302],"rotation":[0.008726535498374044,0,0,0.9999619230641712],"name":"Path","mesh":2},{"translation":[0,0.1367,5.684341886080802e-17],"scale":[0.0008400469224132081,0.0008406909499430743,0.0008316311642836302],"rotation":[0.008726535498374044,0,0,0.9999619230641712],"name":"Path","mesh":3},{"translation":[0,0.1367,5.684341886080802e-17],"scale":[0.0008400469224132081,0.0008406909499430743,0.0008316311642836302],"rotation":[0.008726535498374044,0,0,0.9999619230641712],"name":"Path","mesh":4},{"translation":[0,0.1367,5.684341886080802e-17],"scale":[0.0008400469224132081,0.0008406909499430743,0.0008316311642836302],"rotation":[0.008726535498374044,0,0,0.9999619230641712],"name":"Path","mesh":5},{"translation":[0,0.1367,5.684341886080802e-17],"scale":[0.0008400469224132081,0.0008406909499430743,0.0008316311642836302],"rotation":[0.008726535498374044,0,0,0.9999619230641712],"name":"Path","mesh":6},{"translation":[0,0.1367,5.684341886080802e-17],"scale":[0.0008400469224132081,0.0008406909499430743,0.0008316311642836302],"rotation":[0.008726535498374044,0,0,0.9999619230641712],"name":"Path","mesh":7},{"translation":[0,0.1367,5.684341886080802e-17],"scale":[0.0008400469224132081,0.0008406909499430743,0.0008316311642836302],"rotation":[0.008726535498374044,0,0,0.9999619230641712],"name":"Path","mesh":8},{"translation":[-0.7864695657437114,0.19453493387767212,-0.09688930088702412],"scale":[1,1,1],"rotation":[-0.04455729911737422,-0.7462889755751241,-0.05021324473636265,0.6622280891682585],"name":"Camera","camera":0}],"materials":[{"pbrMetallicRoughness":{"baseColorFactor":[0.012663720031582098,0.2549158565663851,1,1],"metallicFactor":0,"roughnessFactor":1},"name":"","emissiveFactor":[0,0,0],"alphaMode":"OPAQUE","doubleSided":true},{"pbrMetallicRoughness":{"baseColorFactor":[0.012663720031582098,0.2549158565663851,1,1],"metallicFactor":0,"roughnessFactor":1},"name":"","emissiveFactor":[0,0,0],"alphaMode":"OPAQUE","doubleSided":true},{"pbrMetallicRoughness":{"baseColorFactor":[0.012663720031582098,0.2549158565663851,1,1],"metallicFactor":0,"roughnessFactor":1},"name":"","emissiveFactor":[0,0,0],"alphaMode":"OPAQUE","doubleSided":true},{"pbrMetallicRoughness":{"baseColorFactor":[0.012663720031582098,0.2549158565663851,1,1],"metallicFactor":0,"roughnessFactor":1},"name":"","emissiveFactor":[0,0,0],"alphaMode":"OPAQUE","doubleSided":true},{"pbrMetallicRoughness":{"baseColorFactor":[0.1061560678127439,0.03155139140022645,0.8591735696585323,1],"metallicFactor":0,"roughnessFactor":1},"name":"","emissiveFactor":[0,0,0],"alphaMode":"OPAQUE","doubleSided":true},{"pbrMetallicRoughness":{"baseColorFactor":[0.1061560678127439,0.03155139140022645,0.8591735696585323,1],"metallicFactor":0,"roughnessFactor":1},"name":"","emissiveFactor":[0,0,0],"alphaMode":"OPAQUE","doubleSided":true},{"pbrMetallicRoughness":{"baseColorFactor":[0.1061560678127439,0.03155139140022645,0.8591735696585323,1],"metallicFactor":0,"roughnessFactor":1},"name":"","emissiveFactor":[0,0,0],"alphaMode":"OPAQUE","doubleSided":true},{"pbrMetallicRoughness":{"baseColorFactor":[0.1061560678127439,0.03155139140022645,0.8591735696585323,1],"metallicFactor":0,"roughnessFactor":1},"name":"","emissiveFactor":[0,0,0],"alphaMode":"OPAQUE","doubleSided":true},{"pbrMetallicRoughness":{"baseColorFactor":[0.11392093340633272,0.6455552724449345,0.5731588750675233,1],"metallicFactor":0,"roughnessFactor":1},"name":"","emissiveFactor":[0,0,0],"alphaMode":"OPAQUE","doubleSided":true}],"meshes":[{"primitives":[{"mode":4,"attributes":{"POSITION":1,"NORMAL":2,"TEXCOORD_0":3},"material":0,"indices":0}]},{"primitives":[{"mode":4,"attributes":{"POSITION":5,"NORMAL":6,"TEXCOORD_0":7},"material":1,"indices":4}]},{"primitives":[{"mode":4,"attributes":{"POSITION":9,"NORMAL":10,"TEXCOORD_0":11},"material":2,"indices":8}]},{"primitives":[{"mode":4,"attributes":{"POSITION":13,"NORMAL":14,"TEXCOORD_0":15},"material":3,"indices":12}]},{"primitives":[{"mode":4,"attributes":{"POSITION":17,"NORMAL":18,"TEXCOORD_0":19},"material":4,"indices":16}]},{"primitives":[{"mode":4,"attributes":{"POSITION":21,"NORMAL":22,"TEXCOORD_0":23},"material":5,"indices":20}]},{"primitives":[{"mode":4,"attributes":{"POSITION":25,"NORMAL":26,"TEXCOORD_0":27},"material":6,"indices":24}]},{"primitives":[{"mode":4,"attributes":{"POSITION":29,"NORMAL":30,"TEXCOORD_0":31},"material":7,"indices":28}]},{"primitives":[{"mode":4,"attributes":{"POSITION":33,"NORMAL":34,"TEXCOORD_0":35},"material":8,"indices":32}]}],"accessors":[{"bufferView":0,"byteOffset":0,"componentType":5125,"count":29736,"type":"SCALAR"},{"bufferView":1,"byteOffset":0,"componentType":5126,"count":14970,"max":[87.29800415039062,-23.069000244140625,37.10000228881836],"min":[-9.29610538482666,-91.22200012207031,0.1752009242773056],"type":"VEC3"},{"bufferView":2,"byteOffset":0,"componentType":5126,"count":14970,"type":"VEC3"},{"bufferView":3,"byteOffset":0,"componentType":5126,"count":14970,"type":"VEC2"},{"bufferView":4,"byteOffset":0,"componentType":5125,"count":5808,"type":"SCALAR"},{"bufferView":5,"byteOffset":0,"componentType":5126,"count":1950,"max":[28.996994018554688,58.415802001953125,37.10000228881836],"min":[-7.678001403808594,43.83617401123047,0.20000000298023224],"type":"VEC3"},{"bufferView":6,"byteOffset":0,"componentType":5126,"count":1950,"type":"VEC3"},{"bufferView":7,"byteOffset":0,"componentType":5126,"count":1950,"type":"VEC2"},{"bufferView":8,"byteOffset":0,"componentType":5125,"count":10812,"type":"SCALAR"},{"bufferView":9,"byteOffset":0,"componentType":5126,"count":3360,"max":[85.35400390625,117.5,37.10000228881836],"min":[-62.339900970458984,41.95140838623047,0.20000000298023224],"type":"VEC3"},{"bufferView":10,"byteOffset":0,"componentType":5126,"count":3360,"type":"VEC3"},{"bufferView":11,"byteOffset":0,"componentType":5126,"count":3360,"type":"VEC2"},{"bufferView":12,"byteOffset":0,"componentType":5125,"count":32328,"type":"SCALAR"},{"bufferView":13,"byteOffset":0,"componentType":5126,"count":19341,"max":[17.58599853515625,21.935997009277344,37.10000228881836],"min":[-74,-101.68280029296875,0.20000000298023224],"type":"VEC3"},{"bufferView":14,"byteOffset":0,"componentType":5126,"count":19341,"type":"VEC3"},{"bufferView":15,"byteOffset":0,"componentType":5126,"count":19341,"type":"VEC2"},{"bufferView":16,"byteOffset":0,"componentType":5125,"count":19116,"type":"SCALAR"},{"bufferView":17,"byteOffset":0,"componentType":5126,"count":11591,"max":[44.26800537109375,-29.798004150390625,37.10000228881836],"min":[-11.839996337890625,-72.41600036621094,0.20000000298023224],"type":"VEC3"},{"bufferView":18,"byteOffset":0,"componentType":5126,"count":11591,"type":"VEC3"},{"bufferView":19,"byteOffset":0,"componentType":5126,"count":11591,"type":"VEC2"},{"bufferView":20,"byteOffset":0,"componentType":5125,"count":12444,"type":"SCALAR"},{"bufferView":21,"byteOffset":0,"componentType":5126,"count":4679,"max":[62.298004150390625,-7.069000244140625,37.10000228881836],"min":[48.40400695800781,-22.537002563476562,0.20000000298023224],"type":"VEC3"},{"bufferView":22,"byteOffset":0,"componentType":5126,"count":4679,"type":"VEC3"},{"bufferView":23,"byteOffset":0,"componentType":5126,"count":4679,"type":"VEC2"},{"bufferView":24,"byteOffset":0,"componentType":5125,"count":10812,"type":"SCALAR"},{"bufferView":25,"byteOffset":0,"componentType":5126,"count":3359,"max":[60.35400390625,133.5,37.10000228881836],"min":[-87.33989715576172,56.48760986328125,0.20000000298023224],"type":"VEC3"},{"bufferView":26,"byteOffset":0,"componentType":5126,"count":3359,"type":"VEC3"},{"bufferView":27,"byteOffset":0,"componentType":5126,"count":3359,"type":"VEC2"},{"bufferView":28,"byteOffset":0,"componentType":5125,"count":34524,"type":"SCALAR"},{"bufferView":29,"byteOffset":0,"componentType":5126,"count":19959,"max":[-23.200138092041016,38.28898620605469,37.10000228881836],"min":[-99,-91.332275390625,0.17802558839321136],"type":"VEC3"},{"bufferView":30,"byteOffset":0,"componentType":5126,"count":19959,"type":"VEC3"},{"bufferView":31,"byteOffset":0,"componentType":5126,"count":19959,"type":"VEC2"},{"bufferView":32,"byteOffset":0,"componentType":5125,"count":54168,"type":"SCALAR"},{"bufferView":33,"byteOffset":0,"componentType":5126,"count":29736,"max":[107.29800415039062,99.5,37.10000228881836],"min":[-54,-131.75799560546875,0.20000000298023224],"type":"VEC3"},{"bufferView":34,"byteOffset":0,"componentType":5126,"count":29736,"type":"VEC3"},{"bufferView":35,"byteOffset":0,"componentType":5126,"count":29736,"type":"VEC2"}],"bufferViews":[{"buffer":0,"byteOffset":0,"byteLength":118944,"target":34963},{"buffer":0,"byteOffset":118944,"byteLength":179640,"target":34962},{"buffer":0,"byteOffset":298584,"byteLength":179640,"target":34962},{"buffer":0,"byteOffset":478224,"byteLength":119760,"target":34962},{"buffer":0,"byteOffset":597984,"byteLength":23232,"target":34963},{"buffer":0,"byteOffset":621216,"byteLength":23400,"target":34962},{"buffer":0,"byteOffset":644616,"byteLength":23400,"target":34962},{"buffer":0,"byteOffset":668016,"byteLength":15600,"target":34962},{"buffer":0,"byteOffset":683616,"byteLength":43248,"target":34963},{"buffer":0,"byteOffset":726864,"byteLength":40320,"target":34962},{"buffer":0,"byteOffset":767184,"byteLength":40320,"target":34962},{"buffer":0,"byteOffset":807504,"byteLength":26880,"target":34962},{"buffer":0,"byteOffset":834384,"byteLength":129312,"target":34963},{"buffer":0,"byteOffset":963696,"byteLength":232092,"target":34962},{"buffer":0,"byteOffset":1195788,"byteLength":232092,"target":34962},{"buffer":0,"byteOffset":1427880,"byteLength":154728,"target":34962},{"buffer":0,"byteOffset":1582608,"byteLength":76464,"target":34963},{"buffer":0,"byteOffset":1659072,"byteLength":139092,"target":34962},{"buffer":0,"byteOffset":1798164,"byteLength":139092,"target":34962},{"buffer":0,"byteOffset":1937256,"byteLength":92728,"target":34962},{"buffer":0,"byteOffset":2029984,"byteLength":49776,"target":34963},{"buffer":0,"byteOffset":2079760,"byteLength":56148,"target":34962},{"buffer":0,"byteOffset":2135908,"byteLength":56148,"target":34962},{"buffer":0,"byteOffset":2192056,"byteLength":37432,"target":34962},{"buffer":0,"byteOffset":2229488,"byteLength":43248,"target":34963},{"buffer":0,"byteOffset":2272736,"byteLength":40308,"target":34962},{"buffer":0,"byteOffset":2313044,"byteLength":40308,"target":34962},{"buffer":0,"byteOffset":2353352,"byteLength":26872,"target":34962},{"buffer":0,"byteOffset":2380224,"byteLength":138096,"target":34963},{"buffer":0,"byteOffset":2518320,"byteLength":239508,"target":34962},{"buffer":0,"byteOffset":2757828,"byteLength":239508,"target":34962},{"buffer":0,"byteOffset":2997336,"byteLength":159672,"target":34962},{"buffer":0,"byteOffset":3157008,"byteLength":216672,"target":34963},{"buffer":0,"byteOffset":3373680,"byteLength":356832,"target":34962},{"buffer":0,"byteOffset":3730512,"byteLength":356832,"target":34962},{"buffer":0,"byteOffset":4087344,"byteLength":237888,"target":34962}],"cameras":[{"name":"Camera","type":"perspective","extras":{"targetDistance":0.7103454857983321},"perspective":{"aspectRatio":1.5789473684210527,"yfov":0.6108652381980153,"zfar":46.95782424276089,"znear":0.003766724067020197}}],"scene":0,"scenes":[{"nodes":[0,1,2,3,4,5,6,7,8,9],"name":"Project Name"}],"extensionsUsed":["KHR_texture_transform"],"buffers":[{"byteLength":4325232,"uri":"ProjectName.bin"}]}