{"asset":{"version":"2.0","generator":"VECTARY"},"nodes":[{"translation":[-0.01750841929413258,0.07260660351234101,-0.019305319773104103],"scale":[0.006586576466384196,0.006594637527566773,0.006642503058158035],"rotation":[-0.7071067811865475,0,0,0.7071067811865476],"name":"RootNode (gltf orientation matrix)","children":[1]},{"translation":[-0.21177857177556914,-7.825625171886626,4.198373361561652],"scale":[0.9999999835748818,1.000000000745628,1.000000013979657],"rotation":[0.22711218604162559,-0.0634348792180866,0.014826615034299296,0.9716873172752462],"name":"RootNode (model correction matrix)","children":[2]},{"translation":[0,0,0],"scale":[1,1,1],"rotation":[0,0,0,1],"name":"model.obj.cleaner.materialmerger.gles","children":[3,4,5,6,7,8,9,10]},{"translation":[0,0,0],"scale":[1,1,1],"rotation":[0,0,0,1],"name":"Buffer Layer","mesh":0},{"translation":[0,0,0],"scale":[1,1,1],"rotation":[0,0,0,1],"name":"Buffer Layer","mesh":1},{"translation":[0,0,0],"scale":[1,1,1],"rotation":[0,0,0,1],"name":"Buffer Layer","mesh":2},{"translation":[0,0,0],"scale":[1,1,1],"rotation":[0,0,0,1],"name":"Buffer Layer","mesh":3},{"translation":[0,0,0],"scale":[1,1,1],"rotation":[0,0,0,1],"name":"Buffer Layer","mesh":4},{"translation":[0,0,0],"scale":[1,1,1],"rotation":[0,0,0,1],"name":"Buffer Layer","mesh":5},{"translation":[0,0,0],"scale":[1,1,1],"rotation":[0,0,0,1],"name":"Buffer Layer","mesh":6},{"translation":[0,0,0],"scale":[1,1,1],"rotation":[0,0,0,1],"name":"Buffer Layer","mesh":7},{"translation":[-0.07457315346890227,0.044135290544193066,-0.022475060119317044],"scale":[1,1,1],"rotation":[-0.1591061717053024,-0.6721354110758704,-0.15122988989818742,0.7071412416940025],"name":"Camera","camera":0}],"materials":[{"pbrMetallicRoughness":{"baseColorFactor":[1,0.5604991522043282,0.5604991522043282,1],"baseColorTexture":{"index":0,"extensions":{"KHR_texture_transform":{"offset":[0,0],"scale":[1,1],"rotation":0}},"texCoord":0},"metallicFactor":0,"roughnessFactor":1},"name":"Material","emissiveFactor":[0,0,0],"alphaMode":"OPAQUE","doubleSided":true}],"textures":[{"sampler":0,"source":0}],"images":[{"uri":"76805b52-3698-4cd7-933e-17933541be29.jpg","mimeType":"image/jpeg"}],"samplers":[{"wrapS":10497,"wrapT":10497}],"meshes":[{"primitives":[{"mode":4,"attributes":{"POSITION":1,"NORMAL":2,"TEXCOORD_0":3},"material":0,"indices":0}]},{"primitives":[{"mode":4,"attributes":{"POSITION":5,"NORMAL":6,"TEXCOORD_0":7},"material":0,"indices":4}]},{"primitives":[{"mode":4,"attributes":{"POSITION":9,"NORMAL":10,"TEXCOORD_0":11},"material":0,"indices":8}]},{"primitives":[{"mode":4,"attributes":{"POSITION":13,"NORMAL":14,"TEXCOORD_0":15},"material":0,"indices":12}]},{"primitives":[{"mode":4,"attributes":{"POSITION":17,"NORMAL":18,"TEXCOORD_0":19},"material":0,"indices":16}]},{"primitives":[{"mode":4,"attributes":{"POSITION":21,"NORMAL":22,"TEXCOORD_0":23},"material":0,"indices":20}]},{"primitives":[{"mode":4,"attributes":{"POSITION":25,"NORMAL":26,"TEXCOORD_0":27},"material":0,"indices":24}]},{"primitives":[{"mode":4,"attributes":{"POSITION":29,"NORMAL":30,"TEXCOORD_0":31},"material":0,"indices":28}]}],"accessors":[{"bufferView":0,"byteOffset":0,"componentType":5125,"count":357180,"type":"SCALAR"},{"bufferView":1,"byteOffset":0,"componentType":5126,"count":65529,"max":[0.951088011264801,3.992798089981079,-13.42241382598877],"min":[-1.3255000114440918,-1.4559400081634521,-16.715194702148438],"type":"VEC3"},{"bufferView":2,"byteOffset":0,"componentType":5126,"count":65529,"type":"VEC3"},{"bufferView":3,"byteOffset":0,"componentType":5126,"count":65529,"type":"VEC2"},{"bufferView":4,"byteOffset":0,"componentType":5125,"count":339954,"type":"SCALAR"},{"bufferView":5,"byteOffset":0,"componentType":5126,"count":65532,"max":[1.0091110467910767,3.998199939727783,-14.244954109191895],"min":[-1.3586779832839966,0.22524799406528473,-16.69605255126953],"type":"VEC3"},{"bufferView":6,"byteOffset":0,"componentType":5126,"count":65532,"type":"VEC3"},{"bufferView":7,"byteOffset":0,"componentType":5126,"count":65532,"type":"VEC2"},{"bufferView":8,"byteOffset":0,"componentType":5125,"count":340515,"type":"SCALAR"},{"bufferView":9,"byteOffset":0,"componentType":5126,"count":65532,"max":[0.9981229901313782,4.0033111572265625,-13.693954467773438],"min":[-1.4225560426712036,-1.0918790102005005,-16.60370635986328],"type":"VEC3"},{"bufferView":10,"byteOffset":0,"componentType":5126,"count":65532,"type":"VEC3"},{"bufferView":11,"byteOffset":0,"componentType":5126,"count":65532,"type":"VEC2"},{"bufferView":12,"byteOffset":0,"componentType":5125,"count":323169,"type":"SCALAR"},{"bufferView":13,"byteOffset":0,"componentType":5126,"count":65532,"max":[1.0141899585723877,3.9984209537506104,-13.661601066589355],"min":[-1.381719946861267,-1.2822240591049194,-16.26624870300293],"type":"VEC3"},{"bufferView":14,"byteOffset":0,"componentType":5126,"count":65532,"type":"VEC3"},{"bufferView":15,"byteOffset":0,"componentType":5126,"count":65532,"type":"VEC2"},{"bufferView":16,"byteOffset":0,"componentType":5125,"count":309171,"type":"SCALAR"},{"bufferView":17,"byteOffset":0,"componentType":5126,"count":65532,"max":[1.0085740089416504,3.9995779991149902,-13.387030601501465],"min":[-1.2731419801712036,-1.4559400081634521,-16.080678939819336],"type":"VEC3"},{"bufferView":18,"byteOffset":0,"componentType":5126,"count":65532,"type":"VEC3"},{"bufferView":19,"byteOffset":0,"componentType":5126,"count":65532,"type":"VEC2"},{"bufferView":20,"byteOffset":0,"componentType":5125,"count":324351,"type":"SCALAR"},{"bufferView":21,"byteOffset":0,"componentType":5126,"count":65532,"max":[0.8811889886856079,4.320662975311279,-13.302970886230469],"min":[-1.1010890007019043,-1.4452530145645142,-15.699706077575684],"type":"VEC3"},{"bufferView":22,"byteOffset":0,"componentType":5126,"count":65532,"type":"VEC3"},{"bufferView":23,"byteOffset":0,"componentType":5126,"count":65532,"type":"VEC2"},{"bufferView":24,"byteOffset":0,"componentType":5125,"count":313227,"type":"SCALAR"},{"bufferView":25,"byteOffset":0,"componentType":5126,"count":65532,"max":[0.6278749704360962,4.320713996887207,-13.179902076721191],"min":[-0.9428489804267883,-1.3034570217132568,-15.390839576721191],"type":"VEC3"},{"bufferView":26,"byteOffset":0,"componentType":5126,"count":65532,"type":"VEC3"},{"bufferView":27,"byteOffset":0,"componentType":5126,"count":65532,"type":"VEC2"},{"bufferView":28,"byteOffset":0,"componentType":5125,"count":284433,"type":"SCALAR"},{"bufferView":29,"byteOffset":0,"componentType":5126,"count":57248,"max":[0.6574559807777405,4.2996978759765625,-13.04124641418457],"min":[-0.8538320064544678,0.4896070063114166,-15.767992973327637],"type":"VEC3"},{"bufferView":30,"byteOffset":0,"componentType":5126,"count":57248,"type":"VEC3"},{"bufferView":31,"byteOffset":0,"componentType":5126,"count":57248,"type":"VEC2"}],"bufferViews":[{"buffer":0,"byteOffset":0,"byteLength":1428720,"target":34963},{"buffer":0,"byteOffset":1428720,"byteLength":786348,"target":34962},{"buffer":0,"byteOffset":2215068,"byteLength":786348,"target":34962},{"buffer":0,"byteOffset":3001416,"byteLength":524232,"target":34962},{"buffer":0,"byteOffset":3525648,"byteLength":1359816,"target":34963},{"buffer":0,"byteOffset":4885464,"byteLength":786384,"target":34962},{"buffer":0,"byteOffset":5671848,"byteLength":786384,"target":34962},{"buffer":0,"byteOffset":6458232,"byteLength":524256,"target":34962},{"buffer":0,"byteOffset":6982488,"byteLength":1362060,"target":34963},{"buffer":0,"byteOffset":8344548,"byteLength":786384,"target":34962},{"buffer":0,"byteOffset":9130932,"byteLength":786384,"target":34962},{"buffer":0,"byteOffset":9917316,"byteLength":524256,"target":34962},{"buffer":0,"byteOffset":10441572,"byteLength":1292676,"target":34963},{"buffer":0,"byteOffset":11734248,"byteLength":786384,"target":34962},{"buffer":0,"byteOffset":12520632,"byteLength":786384,"target":34962},{"buffer":0,"byteOffset":13307016,"byteLength":524256,"target":34962},{"buffer":0,"byteOffset":13831272,"byteLength":1236684,"target":34963},{"buffer":0,"byteOffset":15067956,"byteLength":786384,"target":34962},{"buffer":0,"byteOffset":15854340,"byteLength":786384,"target":34962},{"buffer":0,"byteOffset":16640724,"byteLength":524256,"target":34962},{"buffer":0,"byteOffset":17164980,"byteLength":1297404,"target":34963},{"buffer":0,"byteOffset":18462384,"byteLength":786384,"target":34962},{"buffer":0,"byteOffset":19248768,"byteLength":786384,"target":34962},{"buffer":0,"byteOffset":20035152,"byteLength":524256,"target":34962},{"buffer":0,"byteOffset":20559408,"byteLength":1252908,"target":34963},{"buffer":0,"byteOffset":21812316,"byteLength":786384,"target":34962},{"buffer":0,"byteOffset":22598700,"byteLength":786384,"target":34962},{"buffer":0,"byteOffset":23385084,"byteLength":524256,"target":34962},{"buffer":0,"byteOffset":23909340,"byteLength":1137732,"target":34963},{"buffer":0,"byteOffset":25047072,"byteLength":686976,"target":34962},{"buffer":0,"byteOffset":25734048,"byteLength":686976,"target":34962},{"buffer":0,"byteOffset":26421024,"byteLength":457984,"target":34962}],"cameras":[{"name":"Camera","type":"perspective","extras":{"targetDistance":0.13654983501401957},"perspective":{"aspectRatio":1.5789473684210527,"yfov":0.6108652381980153,"zfar":25.15140887141989,"znear":0.001528697226277304}}],"scene":0,"scenes":[{"nodes":[0,11],"name":"Project Name"}],"extensionsUsed":["KHR_texture_transform"],"buffers":[{"byteLength":26879008,"uri":"ProjectName.bin"}]}