{
  "accessors": [
    {
      "bufferView": 2,
      "componentType": 5126,
      "count": 65532,
      "max": [
        0.95108801126480103,
        3.9927980899810791,
        -13.42241382598877
      ],
      "min": [
        -1.3255000114440918,
        -1.4559400081634521,
        -16.715194702148438
      ],
      "type": "VEC3"
    },
    {
      "bufferView": 2,
      "byteOffset": 786384,
      "componentType": 5126,
      "count": 65532,
      "max": [
        1,
        0.99067550897598267,
        1
      ],
      "min": [
        -1,
        -0.99999868869781494,
        -1
      ],
      "type": "VEC3"
    },
    {
      "bufferView": 3,
      "componentType": 5126,
      "count": 65532,
      "max": [
        0.99999755620956421,
        0.99458718299865723,
        0.99923670291900635,
        1
      ],
      "min": [
        -0.99536740779876709,
        -0.99968183040618896,
        -0.99994176626205444,
        -1
      ],
      "type": "VEC4"
    },
    {
      "bufferView": 1,
      "componentType": 5126,
      "count": 65532,
      "max": [
        0.75533002614974976,
        0.99647998809814453
      ],
      "min": [
        0.0017000000225380063,
        0.00062000000616535544
      ],
      "type": "VEC2"
    },
    {
      "bufferView": 0,
      "componentType": 5125,
      "count": 357180,
      "max": [
        65531
      ],
      "min": [
        0
      ],
      "type": "SCALAR"
    },
    {
      "bufferView": 2,
      "byteOffset": 1572768,
      "componentType": 5126,
      "count": 65532,
      "max": [
        1.0091110467910767,
        3.9981999397277832,
        -14.244954109191895
      ],
      "min": [
        -1.3586779832839966,
        0.22524799406528473,
        -16.696052551269531
      ],
      "type": "VEC3"
    },
    {
      "bufferView": 2,
      "byteOffset": 2359152,
      "componentType": 5126,
      "count": 65532,
      "max": [
        0.99999648332595825,
        0.9970165491104126,
        0.66551220417022705
      ],
      "min": [
        -0.99999940395355225,
        -0.72306692600250244,
        -0.99591803550720215
      ],
      "type": "VEC3"
    },
    {
      "bufferView": 3,
      "byteOffset": 1048512,
      "componentType": 5126,
      "count": 65532,
      "max": [
        0.99998784065246582,
        0.99574744701385498,
        0.87814891338348389,
        -1
      ],
      "min": [
        -0.99997830390930176,
        -0.54678565263748169,
        -0.99995416402816772,
        -1
      ],
      "type": "VEC4"
    },
    {
      "bufferView": 1,
      "byteOffset": 524256,
      "componentType": 5126,
      "count": 65532,
      "max": [
        0.84059000015258789,
        0.99589002132415771
      ],
      "min": [
        0.00559999980032444,
        0.5926399827003479
      ],
      "type": "VEC2"
    },
    {
      "bufferView": 0,
      "byteOffset": 1428720,
      "componentType": 5125,
      "count": 339954,
      "max": [
        65531
      ],
      "min": [
        0
      ],
      "type": "SCALAR"
    },
    {
      "bufferView": 2,
      "byteOffset": 3145536,
      "componentType": 5126,
      "count": 65532,
      "max": [
        0.99812299013137817,
        4.0033111572265625,
        -13.693954467773438
      ],
      "min": [
        -1.4225560426712036,
        -1.0918790102005005,
        -16.603706359863281
      ],
      "type": "VEC3"
    },
    {
      "bufferView": 2,
      "byteOffset": 3931920,
      "componentType": 5126,
      "count": 65532,
      "max": [
        0.99999034404754639,
        0.99999493360519409,
        0.83453696966171265
      ],
      "min": [
        -0.99999940395355225,
        -0.80850344896316528,
        -0.99006551504135132
      ],
      "type": "VEC3"
    },
    {
      "bufferView": 3,
      "byteOffset": 2097024,
      "componentType": 5126,
      "count": 65532,
      "max": [
        0.99998235702514648,
        0.99256294965744019,
        0.86118143796920776,
        -1
      ],
      "min": [
        -0.99998152256011963,
        -0.7519417405128479,
        -0.9995267391204834,
        -1
      ],
      "type": "VEC4"
    },
    {
      "bufferView": 1,
      "byteOffset": 1048512,
      "componentType": 5126,
      "count": 65532,
      "max": [
        0.85539001226425171,
        0.995930016040802
      ],
      "min": [
        0.013869999907910824,
        0.44826000928878784
      ],
      "type": "VEC2"
    },
    {
      "bufferView": 0,
      "byteOffset": 2788536,
      "componentType": 5125,
      "count": 340515,
      "max": [
        65531
      ],
      "min": [
        0
      ],
      "type": "SCALAR"
    },
    {
      "bufferView": 2,
      "byteOffset": 4718304,
      "componentType": 5126,
      "count": 65532,
      "max": [
        1.0141899585723877,
        3.9984209537506104,
        -13.661601066589355
      ],
      "min": [
        -1.3817199468612671,
        -1.2822240591049194,
        -16.26624870300293
      ],
      "type": "VEC3"
    },
    {
      "bufferView": 2,
      "byteOffset": 5504688,
      "componentType": 5126,
      "count": 65532,
      "max": [
        0.999991774559021,
        0.99962204694747925,
        0.99978852272033691
      ],
      "min": [
        -0.99980974197387695,
        -0.99991136789321899,
        -0.99876564741134644
      ],
      "type": "VEC3"
    },
    {
      "bufferView": 3,
      "byteOffset": 3145536,
      "componentType": 5126,
      "count": 65532,
      "max": [
        0.9998248815536499,
        0.99994295835494995,
        0.9991111159324646,
        1
      ],
      "min": [
        -0.99999040365219116,
        -0.99980342388153076,
        -0.99721318483352661,
        -1
      ],
      "type": "VEC4"
    },
    {
      "bufferView": 1,
      "byteOffset": 1572768,
      "componentType": 5126,
      "count": 65532,
      "max": [
        0.97558999061584473,
        0.9639899730682373
      ],
      "min": [
        0.003060000017285347,
        0.00050000002374872565
      ],
      "type": "VEC2"
    },
    {
      "bufferView": 0,
      "byteOffset": 4150596,
      "componentType": 5125,
      "count": 323169,
      "max": [
        65531
      ],
      "min": [
        0
      ],
      "type": "SCALAR"
    },
    {
      "bufferView": 2,
      "byteOffset": 6291072,
      "componentType": 5126,
      "count": 65532,
      "max": [
        1.0085740089416504,
        3.9995779991149902,
        -13.387030601501465
      ],
      "min": [
        -1.2731419801712036,
        -1.4559400081634521,
        -16.080678939819336
      ],
      "type": "VEC3"
    },
    {
      "bufferView": 2,
      "byteOffset": 7077456,
      "componentType": 5126,
      "count": 65532,
      "max": [
        0.99999713897705078,
        0.99998748302459717,
        0.99962931871414185
      ],
      "min": [
        -0.99999940395355225,
        -0.99999868869781494,
        -0.99999147653579712
      ],
      "type": "VEC3"
    },
    {
      "bufferView": 3,
      "byteOffset": 4194048,
      "componentType": 5126,
      "count": 65532,
      "max": [
        0.99998182058334351,
        0.99984580278396606,
        0.99965131282806396,
        1
      ],
      "min": [
        -0.99996960163116455,
        -0.99934965372085571,
        -0.99995893239974976,
        -1
      ],
      "type": "VEC4"
    },
    {
      "bufferView": 1,
      "byteOffset": 2097024,
      "componentType": 5126,
      "count": 65532,
      "max": [
        0.99540001153945923,
        0.9960399866104126
      ],
      "min": [
        0.0017600000137463212,
        0.00054999999701976776
      ],
      "type": "VEC2"
    },
    {
      "bufferView": 0,
      "byteOffset": 5443272,
      "componentType": 5125,
      "count": 309171,
      "max": [
        65531
      ],
      "min": [
        0
      ],
      "type": "SCALAR"
    },
    {
      "bufferView": 2,
      "byteOffset": 7863840,
      "componentType": 5126,
      "count": 65532,
      "max": [
        0.88118898868560791,
        4.3206629753112793,
        -13.302970886230469
      ],
      "min": [
        -1.1010890007019043,
        -1.4452530145645142,
        -15.699706077575684
      ],
      "type": "VEC3"
    },
    {
      "bufferView": 2,
      "byteOffset": 8650224,
      "componentType": 5126,
      "count": 65532,
      "max": [
        0.99999713897705078,
        0.9999966025352478,
        0.99950265884399414
      ],
      "min": [
        -0.99999666213989258,
        -0.99995583295822144,
        -0.99958771467208862
      ],
      "type": "VEC3"
    },
    {
      "bufferView": 3,
      "byteOffset": 5242560,
      "componentType": 5126,
      "count": 65532,
      "max": [
        0.99985837936401367,
        0.99934011697769165,
        0.99997472763061523,
        1
      ],
      "min": [
        -0.99936580657958984,
        -0.9997408390045166,
        -0.99999147653579712,
        -1
      ],
      "type": "VEC4"
    },
    {
      "bufferView": 1,
      "byteOffset": 2621280,
      "componentType": 5126,
      "count": 65532,
      "max": [
        0.9946100115776062,
        0.9961400032043457
      ],
      "min": [
        0.003490000031888485,
        0.0013200000394135714
      ],
      "type": "VEC2"
    },
    {
      "bufferView": 0,
      "byteOffset": 6679956,
      "componentType": 5125,
      "count": 324351,
      "max": [
        65531
      ],
      "min": [
        0
      ],
      "type": "SCALAR"
    },
    {
      "bufferView": 2,
      "byteOffset": 9436608,
      "componentType": 5126,
      "count": 65532,
      "max": [
        0.62787497043609619,
        4.320713996887207,
        -13.179902076721191
      ],
      "min": [
        -0.94284898042678833,
        -1.3034570217132568,
        -15.390839576721191
      ],
      "type": "VEC3"
    },
    {
      "bufferView": 2,
      "byteOffset": 10222992,
      "componentType": 5126,
      "count": 65532,
      "max": [
        0.99999839067459106,
        0.99999278783798218,
        0.99998527765274048
      ],
      "min": [
        -0.99999064207077026,
        -0.99999761581420898,
        -0.99981772899627686
      ],
      "type": "VEC3"
    },
    {
      "bufferView": 3,
      "byteOffset": 6291072,
      "componentType": 5126,
      "count": 65532,
      "max": [
        0.9999430775642395,
        0.99993646144866943,
        0.9998927116394043,
        1
      ],
      "min": [
        -0.99923211336135864,
        -0.99995315074920654,
        -0.99995917081832886,
        -1
      ],
      "type": "VEC4"
    },
    {
      "bufferView": 1,
      "byteOffset": 3145536,
      "componentType": 5126,
      "count": 65532,
      "max": [
        0.99598002433776855,
        0.99317997694015503
      ],
      "min": [
        0.0031900000758469105,
        0.00026999998954124749
      ],
      "type": "VEC2"
    },
    {
      "bufferView": 0,
      "byteOffset": 7977360,
      "componentType": 5125,
      "count": 313227,
      "max": [
        65531
      ],
      "min": [
        0
      ],
      "type": "SCALAR"
    },
    {
      "bufferView": 2,
      "byteOffset": 11009376,
      "componentType": 5126,
      "count": 57248,
      "max": [
        0.65745598077774048,
        4.2996978759765625,
        -13.04124641418457
      ],
      "min": [
        -0.85383200645446777,
        0.48960700631141663,
        -15.767992973327637
      ],
      "type": "VEC3"
    },
    {
      "bufferView": 2,
      "byteOffset": 11696352,
      "componentType": 5126,
      "count": 57248,
      "max": [
        0.99999415874481201,
        0.99988770484924316,
        0.99999910593032837
      ],
      "min": [
        -0.99989116191864014,
        -0.99993783235549927,
        -0.99987781047821045
      ],
      "type": "VEC3"
    },
    {
      "bufferView": 3,
      "byteOffset": 7339584,
      "componentType": 5126,
      "count": 57248,
      "max": [
        0.99967163801193237,
        0.99995219707489014,
        0.99951624870300293,
        1
      ],
      "min": [
        -0.99979561567306519,
        -0.99997782707214355,
        -0.99996542930603027,
        -1
      ],
      "type": "VEC4"
    },
    {
      "bufferView": 1,
      "byteOffset": 3669792,
      "componentType": 5126,
      "count": 57248,
      "max": [
        0.99632000923156738,
        0.88015002012252808
      ],
      "min": [
        0.0033199999015778303,
        0.002460000105202198
      ],
      "type": "VEC2"
    },
    {
      "bufferView": 0,
      "byteOffset": 9230268,
      "componentType": 5125,
      "count": 284433,
      "max": [
        57247
      ],
      "min": [
        0
      ],
      "type": "SCALAR"
    }
  ],
  "asset": {
    "extras": {
      "author": "3D Sneakers (https://sketchfab.com/colleywolly)",
      "license": "SKETCHFAB Editorial (https://sketchfab.com/licenses)",
      "source": "https://sketchfab.com/3d-models/adidas-yeezy-350-sneakers-shoes-94ba4c81f5cd4bfeae070564360a1090",
      "title": "Adidas Yeezy 350 Sneakers Shoes"
    },
    "generator": "Sketchfab-5.39.0",
    "version": "2.0"
  },
  "bufferViews": [
    {
      "buffer": 0,
      "byteLength": 10368000,
      "byteOffset": 0,
      "name": "floatBufferViews",
      "target": 34963
    },
    {
      "buffer": 0,
      "byteLength": 4127776,
      "byteOffset": 10368000,
      "byteStride": 8,
      "name": "floatBufferViews",
      "target": 34962
    },
    {
      "buffer": 0,
      "byteLength": 12383328,
      "byteOffset": 14495776,
      "byteStride": 12,
      "name": "floatBufferViews",
      "target": 34962
    },
    {
      "buffer": 0,
      "byteLength": 8255552,
      "byteOffset": 26879104,
      "byteStride": 16,
      "name": "floatBufferViews",
      "target": 34962
    }
  ],
  "buffers": [
    {
      "byteLength": 35134656,
      "uri": "scene.bin"
    }
  ],
  "extensionsUsed": [
    "KHR_materials_unlit"
  ],
  "images": [
    {
      "uri": "textures/model_baseColor.jpeg"
    }
  ],
  "materials": [
    {
      "doubleSided": true,
      "emissiveFactor": [
        0,
        0,
        0
      ],
      "extensions": {
        "KHR_materials_unlit": {}
      },
      "name": "model",
      "pbrMetallicRoughness": {
        "baseColorFactor": [
          1,
          1,
          1,
          1
        ],
        "baseColorTexture": {
          "index": 0,
          "texCoord": 0
        },
        "metallicFactor": 0,
        "roughnessFactor": 1
      }
    }
  ],
  "meshes": [
    {
      "primitives": [
        {
          "attributes": {
            "NORMAL": 1,
            "POSITION": 0,
            "TANGENT": 2,
            "TEXCOORD_0": 3
          },
          "indices": 4,
          "material": 0,
          "mode": 4
        }
      ]
    },
    {
      "primitives": [
        {
          "attributes": {
            "NORMAL": 6,
            "POSITION": 5,
            "TANGENT": 7,
            "TEXCOORD_0": 8
          },
          "indices": 9,
          "material": 0,
          "mode": 4
        }
      ]
    },
    {
      "primitives": [
        {
          "attributes": {
            "NORMAL": 11,
            "POSITION": 10,
            "TANGENT": 12,
            "TEXCOORD_0": 13
          },
          "indices": 14,
          "material": 0,
          "mode": 4
        }
      ]
    },
    {
      "primitives": [
        {
          "attributes": {
            "NORMAL": 16,
            "POSITION": 15,
            "TANGENT": 17,
            "TEXCOORD_0": 18
          },
          "indices": 19,
          "material": 0,
          "mode": 4
        }
      ]
    },
    {
      "primitives": [
        {
          "attributes": {
            "NORMAL": 21,
            "POSITION": 20,
            "TANGENT": 22,
            "TEXCOORD_0": 23
          },
          "indices": 24,
          "material": 0,
          "mode": 4
        }
      ]
    },
    {
      "primitives": [
        {
          "attributes": {
            "NORMAL": 26,
            "POSITION": 25,
            "TANGENT": 27,
            "TEXCOORD_0": 28
          },
          "indices": 29,
          "material": 0,
          "mode": 4
        }
      ]
    },
    {
      "primitives": [
        {
          "attributes": {
            "NORMAL": 31,
            "POSITION": 30,
            "TANGENT": 32,
            "TEXCOORD_0": 33
          },
          "indices": 34,
          "material": 0,
          "mode": 4
        }
      ]
    },
    {
      "primitives": [
        {
          "attributes": {
            "NORMAL": 36,
            "POSITION": 35,
            "TANGENT": 37,
            "TEXCOORD_0": 38
          },
          "indices": 39,
          "material": 0,
          "mode": 4
        }
      ]
    }
  ],
  "nodes": [
    {
      "children": [
        1
      ],
      "name": "RootNode (gltf orientation matrix)",
      "rotation": [
        -0.70710678118654746,
        -0,
        -0,
        0.70710678118654757
      ]
    },
    {
      "children": [
        2
      ],
      "matrix": [
        0.99151235818862915,
        0,
        0.13001234829425812,
        0,
        -0.05762733519077301,
        0.89640045166015625,
        0.43948301672935486,
        0,
        -0.11654312163591385,
        -0.44324511289596558,
        0.88879215717315674,
        0,
        -1.6531431674957275,
        -6.4463057518005371,
        -2.2575390338897705,
        1
      ],
      "name": "RootNode (model correction matrix)"
    },
    {
      "children": [
        3,
        4,
        5,
        6,
        7,
        8,
        9,
        10
      ],
      "name": "model.obj.cleaner.materialmerger.gles"
    },
    {
      "mesh": 0,
      "name": ""
    },
    {
      "mesh": 1,
      "name": ""
    },
    {
      "mesh": 2,
      "name": ""
    },
    {
      "mesh": 3,
      "name": ""
    },
    {
      "mesh": 4,
      "name": ""
    },
    {
      "mesh": 5,
      "name": ""
    },
    {
      "mesh": 6,
      "name": ""
    },
    {
      "mesh": 7,
      "name": ""
    }
  ],
  "samplers": [
    {
      "magFilter": 9729,
      "minFilter": 9987,
      "wrapS": 10497,
      "wrapT": 10497
    }
  ],
  "scene": 0,
  "scenes": [
    {
      "name": "OSG_Scene",
      "nodes": [
        0
      ]
    }
  ],
  "textures": [
    {
      "sampler": 0,
      "source": 0
    }
  ]
}

