<svg width="9" height="17" viewBox="0 0 9 17" fill="none" xmlns="http://www.w3.org/2000/svg">
<path d="M4.59 16C2.61 16 1 13.965 1 11.465V4.115H1.485V11.465C1.485 13.7 2.88 15.52 4.59 15.52C6.3 15.52 7.695 13.7 7.695 11.465V4.075C7.695 2.645 6.81 1.48 5.725 1.48C4.64 1.48 3.755 2.645 3.755 4.075V11.52C3.755 12.125 4.13 12.635 4.575 12.635C5.03 12.635 5.395 12.135 5.395 11.52V4.115H5.88V11.52C5.88 12.405 5.295 13.12 4.575 13.12C3.855 13.12 3.27 12.4 3.27 11.52V4.075C3.27 2.38 4.37 1 5.72 1C7.07 1 8.17 2.38 8.17 4.075V11.46C8.18 13.965 6.57 16 4.59 16Z" fill="#333333" stroke="#333333" stroke-width="0.2"/>
</svg>
