<svg width="36" height="35" viewBox="0 0 36 35" fill="none" xmlns="http://www.w3.org/2000/svg">
<path d="M29.6924 10.2621L29.6924 10.1147L29.5634 10.0434L17.4943 3.36766L17.3732 3.30066L17.2521 3.36777L5.18915 10.0538L5.06028 10.1252L5.06035 10.2726L5.06684 23.6349L5.06691 23.7823L5.19583 23.8536L17.2646 30.5293L17.3858 30.5963L17.5068 30.5292L29.5695 23.8429L29.6983 23.7715L29.6983 23.6241L29.6924 10.2621ZM28.3818 11.5882L28.3871 23.0287L18.0415 28.7632V17.3198L28.3818 11.5882ZM7.04822 10.4957L17.3734 4.826L27.7104 10.4903L17.3852 16.2134L7.04822 10.4957ZM6.37757 23.0376L6.372 11.5911L16.7298 17.3206V28.7642L6.37757 23.0376Z" fill="#333333" stroke="#333333" stroke-width="0.5"/>
<path d="M1 30.3105V33.7588H3.58621" stroke="#333333"/>
<path d="M34.6207 30.3105V33.7588H31.1724" stroke="#333333"/>
<path d="M34.6207 4.44824V0.999966H31.1724" stroke="#333333"/>
<path d="M1 4.44824V0.999966H3.58621" stroke="#333333"/>
</svg>
