{
  "accessors": [
    {
      "bufferView": 2,
      "componentType": 5126,
      "count": 10139,
      "max": [
        7.0088582038879395,
        -9.6626243591308594,
        2.4587900638580322
      ],
      "min": [
        -3.6334469318389893,
        -15.106192588806152,
        -1.8840969800949097
      ],
      "type": "VEC3"
    },
    {
      "bufferView": 2,
      "byteOffset": 121668,
      "componentType": 5126,
      "count": 10139,
      "max": [
        0.99998986721038818,
        0.99994498491287231,
        0.99983823299407959
      ],
      "min": [
        -0.99978345632553101,
        -0.99987250566482544,
        -0.99997150897979736
      ],
      "type": "VEC3"
    },
    {
      "bufferView": 3,
      "componentType": 5126,
      "count": 10139,
      "max": [
        0.99893558025360107,
        0.99980241060256958,
        0.99996280670166016,
        1
      ],
      "min": [
        -0.99795854091644287,
        -0.99993860721588135,
        -0.99979954957962036,
        -1
      ],
      "type": "VEC4"
    },
    {
      "bufferView": 1,
      "componentType": 5126,
      "count": 10139,
      "max": [
        0.99804002046585083,
        0.9511600136756897
      ],
      "min": [
        0.0019499999471008778,
        0.0019499999471008778
      ],
      "type": "VEC2"
    },
    {
      "bufferView": 0,
      "componentType": 5125,
      "count": 59994,
      "max": [
        10138
      ],
      "min": [
        0
      ],
      "type": "SCALAR"
    }
  ],
  "asset": {
    "extras": {
      "author": "Przemek Gesicki - DigitWorlds (https://sketchfab.com/lunar11)",
      "license": "SKETCHFAB Editorial (https://sketchfab.com/licenses)",
      "source": "https://sketchfab.com/3d-models/nike-zoom-pegasus-shoe-155fe25d6c9f4958b07df9f2d9b8833c",
      "title": "Nike Zoom Pegasus Shoe"
    },
    "generator": "Sketchfab-6.47.0",
    "version": "2.0"
  },
  "bufferViews": [
    {
      "buffer": 0,
      "byteLength": 239976,
      "byteOffset": 0,
      "name": "floatBufferViews",
      "target": 34963
    },
    {
      "buffer": 0,
      "byteLength": 81112,
      "byteOffset": 239976,
      "byteStride": 8,
      "name": "floatBufferViews",
      "target": 34962
    },
    {
      "buffer": 0,
      "byteLength": 243336,
      "byteOffset": 321088,
      "byteStride": 12,
      "name": "floatBufferViews",
      "target": 34962
    },
    {
      "buffer": 0,
      "byteLength": 162224,
      "byteOffset": 564424,
      "byteStride": 16,
      "name": "floatBufferViews",
      "target": 34962
    }
  ],
  "buffers": [
    {
      "byteLength": 726648,
      "uri": "scene.bin"
    }
  ],
  "extensionsUsed": [
    "KHR_materials_unlit"
  ],
  "images": [
    {
      "uri": "textures/material_baseColor.jpeg"
    }
  ],
  "materials": [
    {
      "doubleSided": true,
      "extensions": {
        "KHR_materials_unlit": {}
      },
      "name": "material",
      "pbrMetallicRoughness": {
        "baseColorFactor": [
          1,
          1,
          1,
          1
        ],
        "baseColorTexture": {
          "index": 0,
          "texCoord": 0
        },
        "metallicFactor": 0,
        "roughnessFactor": 1
      }
    }
  ],
  "meshes": [
    {
      "primitives": [
        {
          "attributes": {
            "NORMAL": 1,
            "POSITION": 0,
            "TANGENT": 2,
            "TEXCOORD_0": 3
          },
          "indices": 4,
          "material": 0,
          "mode": 4
        }
      ]
    }
  ],
  "nodes": [
    {
      "children": [
        1
      ],
      "name": "RootNode (gltf orientation matrix)",
      "rotation": [
        -0.70710678118654746,
        -0,
        -0,
        0.70710678118654757
      ]
    },
    {
      "children": [
        2
      ],
      "matrix": [
        0.9977879524230957,
        0.0061554438434541225,
        -0.066191822290420532,
        0,
        0.06205122172832489,
        -0.44348740577697754,
        0.89413005113601685,
        0,
        -0.02385147288441658,
        -0.89625948667526245,
        -0.44288834929466248,
        0,
        0.77905446290969849,
        -17.629598617553711,
        11.599578857421875,
        1
      ],
      "name": "RootNode (model correction matrix)"
    },
    {
      "children": [
        3
      ],
      "name": "fin.obj.cleaner.materialmerger.gles"
    },
    {
      "mesh": 0,
      "name": ""
    }
  ],
  "samplers": [
    {
      "magFilter": 9729,
      "minFilter": 9987,
      "wrapS": 10497,
      "wrapT": 10497
    }
  ],
  "scene": 0,
  "scenes": [
    {
      "name": "OSG_Scene",
      "nodes": [
        0
      ]
    }
  ],
  "textures": [
    {
      "sampler": 0,
      "source": 0
    }
  ]
}

